<?xml version="1.0" encoding="UTF-8" standalone="no"?>
<svg
   width="210mm"
   height="297mm"
   viewBox="0 0 210 297"
   version="1.1"
   id="svg8"
   xmlns="http://www.w3.org/2000/svg"
   xmlns:svg="http://www.w3.org/2000/svg"
   xmlns:rdf="http://www.w3.org/1999/02/22-rdf-syntax-ns#"
   xmlns:cc="http://creativecommons.org/ns#"
   xmlns:dc="http://purl.org/dc/elements/1.1/">
  <defs
     id="defs2" />
  <metadata
     id="metadata5">
    <rdf:RDF>
      <cc:Work
         rdf:about="">
        <dc:format>image/svg+xml</dc:format>
        <dc:type
           rdf:resource="http://purl.org/dc/dcmitype/StillImage" />
      </cc:Work>
    </rdf:RDF>
  </metadata>
  <g
     id="layer1">
    <ellipse
       style="fill:#d40000;stroke-width:0.264583"
       id="path69"
       cx="12.498616"
       cy="16.036608"
       rx="10.016369"
       ry="9.8273811" />
    <path
       style="fill:#ffffff;stroke-width:0.205904"
       id="path71"
       d="m -0.16813532,12.74591 c 1.69734002,0.15339 3.41345002,0.25478 5.13011002,0.33777 0.5025,0.0243 1.0045,0.0541 1.50884,0.0656 0.6319,0.0144 1.26505,0.008 1.89757,0.0121 0.75908,-0.0168 1.51937,-0.0232 2.2772503,-0.0503 1.3411,-0.0478 3.2544,-0.16056 4.60447,-0.25635 1.26709,-0.0899 2.20123,-0.16599 3.4278,-0.31864 0.43563,-0.0542 0.86291,-0.12374 1.29437,-0.18561 0.3312,-0.06 0.66695,-0.1141 0.9936,-0.17991 0.24728,-0.0498 0.49407,-0.10186 0.72673,-0.16673 1.51693,-0.42288 2.91535,-0.65486 3.84024,-1.33688 0.12594,-0.11855 0.10743,-0.0604 0.0935,-0.17033 l -2.77958,0.69235 v 0 c -0.006,10e-4 -0.0121,0.002 -0.018,0.003 -0.0313,0.0259 -0.0627,0.0518 -0.0939,0.0777 -0.14933,0.0999 -0.20408,0.14456 -0.40097,0.2353 -0.11565,0.0533 -0.50608,0.18465 -0.36451,0.14999 0.6775,-0.16587 1.32686,-0.35878 1.98149,-0.54587 0.25103,-0.0718 -0.50687,0.13986 -0.77029,0.1997 -0.34289,0.0779 -0.69782,0.14207 -1.04672,0.21309 -0.44817,0.072 -0.89116,0.1525 -1.34449,0.21607 -1.21584,0.17052 -2.29163,0.27586 -3.54611,0.37798 -2.23817,0.18218 -1.99316,0.73879 -6.77185,0.2918 -2.7355903,-0.0518 -5.5147803,-0.13345 -8.1589103,-0.51029 l -2.48054002,0.84829 z" />
    <path
       style="fill:#d40000;fill-opacity:1;stroke-width:0.264583"
       id="path73"
       d="m 9.9811747,7.0678797 c 0.1278203,-0.922 0.3855403,-1.86627 0.8546803,-2.67898 0.0922,-0.15977 0.20968,-0.30357 0.31452,-0.45536 0.14215,-0.11989 0.27198,-0.25613 0.42645,-0.35968 0.16222,-0.10874 0.68057,-0.38194 0.51813,-0.27352 -0.56328,0.37597 -1.19323,0.65485 -1.72248,1.07737 -0.15826,0.12634 0.38608,-0.1243 0.58375,-0.16829 0.50556,-0.11252 0.63523,-0.0951 1.13753,-0.11286 1.31185,0.12866 1.6597,0.89014 2.08197,2.01916 0.25494,0.76546 0.33131,1.57468 0.41897,2.37277 -0.002,0.0718 -0.004,0.1436 -0.007,0.2154 0,0 2.46278,-1.26803 2.46278,-1.26803 v 0 c -0.009,-0.0767 -0.017,-0.15333 -0.0255,-0.23 -0.14432,-0.80339 -0.19208,-1.63401 -0.51409,-2.39284 -0.49695,-1.20028 -0.84374,-2.07983 -2.25875,-2.29161 -2.10566,0.0131 -2.3667,0.47988 -4.6421503,1.73574 -0.52199,0.2881 -0.50242,0.3302 -0.90581,0.75096 -0.0983,0.16317 -0.20797,0.32001 -0.29488,0.48952 -0.44808,0.87392 -0.6822,1.85446 -0.90793,2.80262 0,0 2.47944,-1.23237 2.47944,-1.23237 z" />
    <path
       style="fill:#d40000;fill-opacity:1;stroke-width:0.291521"
       id="path75"
       d="m 5.7482647,23.40737 c -0.14878,1.56366 -0.59608,3.05229 -1.0655,4.50934 -0.29549,0.90218 -0.52244,1.87887 -0.98375,2.68373 -0.17233,0.36294 -0.0821,0.18194 -0.27118,0.5427 0,0 2.5221,-1.34984 2.5221,-1.34984 v 0 c 0.18935,-0.37194 0.0963,-0.18802 0.27937,-0.55171 0.37114,-0.84743 0.56919,-1.79217 0.85844,-2.68158 0.45972,-1.51936 0.82571,-3.08052 1.15469,-4.6483 0,0 -2.49417,1.49566 -2.49417,1.49566 z" />
    <path
       style="fill:#d40000;fill-opacity:1;stroke-width:0.316664"
       id="path77"
       d="m 12.387175,26.04904 c 0.17046,1.32797 0.28866,2.66683 0.35236,4.01364 0.0292,0.88696 0.0432,1.77553 0.0304,2.66341 -10e-4,0.0563 -0.003,0.11259 -0.004,0.16892 0,0 2.49407,-1.82649 2.49407,-1.82649 v 0 c -0.003,-0.0544 -0.005,-0.10886 -0.008,-0.16335 -0.0384,-0.86859 -0.0909,-1.73551 -0.14311,-2.60261 -0.0294,-0.55465 -0.0451,-1.1109 -0.0823,-1.6646 -0.0537,-0.80066 -0.18488,-1.59713 -0.14878,-2.4068 0,0 -2.49073,1.81788 -2.49073,1.81788 z" />
    <path
       style="fill:#d40000;fill-opacity:1;stroke-width:0.264132"
       id="path81"
       d="m 18.574005,23.4355 c 0.72023,1.43343 1.34089,2.96518 1.9685,4.48469 0.0998,0.29285 0.28736,0.58541 0.29096,0.92975 -0.0343,0.28755 0.17752,0.53939 0.29233,0.75398 0.121,0.17979 0.0666,0.10334 0.16127,0.23226 0,0 1.9748,-1.79865 1.9748,-1.79865 v 0 c -0.0933,-0.0744 -0.0427,-0.0311 -0.15062,-0.13278 -0.1092,-0.2064 -0.20596,-0.37013 -0.20747,-0.63206 -0.0674,-0.38058 -0.25122,-0.68806 -0.41292,-0.99515 -0.73197,-1.41642 -1.43065,-2.87833 -1.97634,-4.46337 0,0 -1.94051,1.62133 -1.94051,1.62133 z" />
    <path
       style="fill:#aa0000;stroke-width:0.166648"
       id="path71-5"
       d="m 2.5761747,18.76063 c 1.2956,0.13163 2.60555,0.21864 3.9159,0.28986 0.38358,0.0208 0.76675,0.0464 1.15173,0.0563 0.48234,0.0123 0.96564,0.007 1.44844,0.0104 0.57942,-0.0144 1.1597603,-0.0199 1.7382603,-0.0432 1.02368,-0.041 2.48414,-0.13778 3.51467,-0.21998 0.96719,-0.0772 1.68022,-0.14245 2.61649,-0.27345 0.33252,-0.0465 0.65867,-0.10619 0.98801,-0.15928 0.25281,-0.0515 0.5091,-0.0979 0.75843,-0.15439 0.18875,-0.0427 0.37714,-0.0874 0.55473,-0.14308 1.15788,-0.3629 2.22532,-0.56197 2.93131,-1.14725 0.0961,-0.10174 0.082,-0.0518 0.0714,-0.14617 l -2.1217,0.59414 v 0 c -0.005,8.6e-4 -0.009,0.002 -0.0137,0.003 -0.0239,0.0222 -0.0479,0.0445 -0.0717,0.0667 -0.11399,0.0857 -0.15578,0.12406 -0.30607,0.20193 -0.0883,0.0457 -0.38631,0.15846 -0.27823,0.12871 0.51714,-0.14234 1.01281,-0.30789 1.51249,-0.46844 0.19162,-0.0616 -0.38689,0.12002 -0.58797,0.17138 -0.26173,0.0668 -0.53266,0.12191 -0.79897,0.18286 -0.34211,0.0618 -0.68024,0.13087 -1.02627,0.18542 -0.92808,0.14634 -1.74924,0.23673 -2.7068,0.32437 -1.70844,0.15634 -1.52142,0.634 -5.16907,0.25041 -2.0881003,-0.0445 -4.2095103,-0.11452 -6.2278303,-0.43791 l -1.89344,0.72797 z" />
    <path
       style="fill:#aa0000;stroke-width:0.167333"
       id="path71-5-3"
       d="m 2.5926747,17.53216 c 1.30628,0.13163 2.62701,0.21864 3.94816,0.28986 0.38673,0.0208 0.77306,0.0464 1.16121,0.0563 0.48631,0.0123 0.97359,0.007 1.46037,0.0104 0.58419,-0.0144 1.1693103,-0.0199 1.7525703,-0.0432 1.03212,-0.041 2.5046,-0.13778 3.54362,-0.21998 0.97516,-0.0772 1.69406,-0.14245 2.63804,-0.27345 0.33526,-0.0465 0.66409,-0.10619 0.99614,-0.15928 0.25489,-0.0515 0.5133,-0.0979 0.76468,-0.15439 0.19031,-0.0427 0.38025,-0.0874 0.5593,-0.14308 1.16742,-0.3629 2.24365,-0.56197 2.95546,-1.14725 0.0969,-0.10174 0.0826,-0.0518 0.072,-0.14617 l -2.13917,0.59414 v 0 c -0.005,8.6e-4 -0.009,0.002 -0.0138,0.003 -0.0241,0.0222 -0.0483,0.0445 -0.0723,0.0667 -0.11492,0.0857 -0.15706,0.12406 -0.30859,0.20193 -0.089,0.0457 -0.38948,0.15846 -0.28052,0.12871 0.5214,-0.14234 1.02115,-0.30789 1.52495,-0.46844 0.1932,-0.0616 -0.39008,0.12002 -0.59281,0.17138 -0.26389,0.0668 -0.53705,0.12191 -0.80556,0.18286 -0.34492,0.0618 -0.68584,0.13087 -1.03472,0.18542 -0.93572,0.14634 -1.76364,0.23673 -2.72909,0.32437 -1.72251,0.15634 -1.53395,0.634 -5.21164,0.25041 C 8.6756747,17.1979 6.5367947,17.12788 4.5018547,16.80449 l -1.90904,0.72797 z" />
    <circle
       id="path156"
       style="fill:#aa0000;stroke:#ffffff;stroke-width:0.264583"
       cx="20.379292"
       cy="24.922876"
       r="0.0088305436" />
  </g>
</svg>
